[Header]
FileType HTR
DataType HTRS
FileVersion 1
NumSegments 64
NumFrames 4
DataFrameRate 30
EulerRotationOrder ZYX
CalibrationUnits mm
RotationUnits Degrees
GlobalAxisofGravity Y
BoneLengthAxis Y
ScaleFactor 1.0
[SegmentNames&Hierarchy]
Hips	GLOBAL
Spine	Hips
Spine1	Spine
Spine2	Spine1
Neck	Spine2
Head	Neck
LeftEye	Head
RightEye	Head
LeftShoulder	Spine2
LeftArm	LeftShoulder
LeftForeArm	LeftArm
LeftHand	LeftForeArm
LeftHandThumb1	LeftHand
LeftHandThumb2	LeftHandThumb1
LeftHandThumb3	LeftHandThumb2
LeftHandThumb4	LeftHandThumb3
LeftHandIndex1	LeftHand
LeftHandIndex2	LeftHandIndex1
LeftHandIndex3	LeftHandIndex2
LeftHandIndex4	LeftHandIndex3
LeftHandMiddle1	LeftHand
LeftHandMiddle2	LeftHandMiddle1
LeftHandMiddle3	LeftHandMiddle2
LeftHandMiddle4	LeftHandMiddle3
LeftHandRing1	LeftHand
LeftHandRing2	LeftHandRing1
LeftHandRing3	LeftHandRing2
LeftHandRing4	LeftHandRing3
LeftHandPinky1	LeftHand
LeftHandPinky2	LeftHandPinky1
LeftHandPinky3	LeftHandPinky2
LeftHandPinky4	LeftHandPinky3
RightShoulder	Spine2
RightArm	RightShoulder
RightForeArm	RightArm
RightHand	RightForeArm
RightHandPinky1	RightHand
RightHandPinky2	RightHandPinky1
RightHandPinky3	RightHandPinky2
RightHandPinky4	RightHandPinky3
RightHandRing1	RightHand
RightHandRing2	RightHandRing1
RightHandRing3	RightHandRing2
RightHandRing4	RightHandRing3
RightHandMiddle1	RightHand
RightHandMiddle2	RightHandMiddle1
RightHandMiddle3	RightHandMiddle2
RightHandMiddle4	RightHandMiddle3
RightHandIndex1	RightHand
RightHandIndex2	RightHandIndex1
RightHandIndex3	RightHandIndex2
RightHandIndex4	RightHandIndex3
RightHandThumb1	RightHand
RightHandThumb2	RightHandThumb1
RightHandThumb3	RightHandThumb2
RightHandThumb4	RightHandThumb3
LeftUpLeg	Hips
LeftLeg	LeftUpLeg
LeftFoot	LeftLeg
LeftToeBase	LeftFoot
RightUpLeg	Hips
RightLeg	RightUpLeg
RightFoot	RightLeg
RightToeBase	RightFoot
[BasePosition]
Hips	0	0	0	0	0	0	1
Spine	0	0	0	0	0	0	1
Spine1	0	0	0	0	0	0	1
Spine2	0	0	0	0	0	0	1
Neck	0	0	0	0	0	0	1
Head	0	0	0	0	0	0	1
LeftEye	0	0	0	0	0	0	1
RightEye	0	0	0	0	0	0	1
LeftShoulder	0	0	0	0	0	0	1
LeftArm	0	0	0	0	0	0	1
LeftForeArm	0	0	0	0	0	0	1
LeftHand	0	0	0	0	0	0	1
LeftHandThumb1	0	0	0	0	0	0	1
LeftHandThumb2	0	0	0	0	0	0	1
LeftHandThumb3	0	0	0	0	0	0	1
LeftHandThumb4	0	0	0	0	0	0	1
LeftHandIndex1	0	0	0	0	0	0	1
LeftHandIndex2	0	0	0	0	0	0	1
LeftHandIndex3	0	0	0	0	0	0	1
LeftHandIndex4	0	0	0	0	0	0	1
LeftHandMiddle1	0	0	0	0	0	0	1
LeftHandMiddle2	0	0	0	0	0	0	1
LeftHandMiddle3	0	0	0	0	0	0	1
LeftHandMiddle4	0	0	0	0	0	0	1
LeftHandRing1	0	0	0	0	0	0	1
LeftHandRing2	0	0	0	0	0	0	1
LeftHandRing3	0	0	0	0	0	0	1
LeftHandRing4	0	0	0	0	0	0	1
LeftHandPinky1	0	0	0	0	0	0	1
LeftHandPinky2	0	0	0	0	0	0	1
LeftHandPinky3	0	0	0	0	0	0	1
LeftHandPinky4	0	0	0	0	0	0	1
RightShoulder	0	0	0	0	0	0	1
RightArm	0	0	0	0	0	0	1
RightForeArm	0	0	0	0	0	0	1
RightHand	0	0	0	0	0	0	1
RightHandPinky1	0	0	0	0	0	0	1
RightHandPinky2	0	0	0	0	0	0	1
RightHandPinky3	0	0	0	0	0	0	1
RightHandPinky4	0	0	0	0	0	0	1
RightHandRing1	0	0	0	0	0	0	1
RightHandRing2	0	0	0	0	0	0	1
RightHandRing3	0	0	0	0	0	0	1
RightHandRing4	0	0	0	0	0	0	1
RightHandMiddle1	0	0	0	0	0	0	1
RightHandMiddle2	0	0	0	0	0	0	1
RightHandMiddle3	0	0	0	0	0	0	1
RightHandMiddle4	0	0	0	0	0	0	1
RightHandIndex1	0	0	0	0	0	0	1
RightHandIndex2	0	0	0	0	0	0	1
RightHandIndex3	0	0	0	0	0	0	1
RightHandIndex4	0	0	0	0	0	0	1
RightHandThumb1	0	0	0	0	0	0	1
RightHandThumb2	0	0	0	0	0	0	1
RightHandThumb3	0	0	0	0	0	0	1
RightHandThumb4	0	0	0	0	0	0	1
LeftUpLeg	0	0	0	0	0	0	1
LeftLeg	0	0	0	0	0	0	1
LeftFoot	0	0	0	0	0	0	1
LeftToeBase	0	0	0	0	0	0	1
RightUpLeg	0	0	0	0	0	0	1
RightLeg	0	0	0	0	0	0	1
RightFoot	0	0	0	0	0	0	1
RightToeBase	0	0	0	0	0	0	1
[Hips]
51	-6.656264305	1030.272827	18.48552513	-2.148590803	-6.347245693	-3.598680258	1.0
52	-5.85935688	1030.964478	18.13022232	-2.26714921	-6.280512333	-3.53302145	1.0
53	-5.161003113	1031.636841	17.83607674	-2.393782616	-6.197589397	-3.480299473	1.0
54	-4.662999153	1031.986328	17.68628502	-2.515968561	-6.125948906	-3.459920406	1.0
[Spine]
51	0	101.8159943	1.315000057	3.554952145	1.414896488	2.740468025	1.0
52	0	101.8159943	1.315000057	3.532218933	1.40941298	2.766998053	1.0
53	0	101.8159943	1.315000057	3.509895086	1.397345781	2.78889513	1.0
54	0	101.8159943	1.315000057	3.485712767	1.392404318	2.799347878	1.0
[Spine1]
51	0	100.8349991	-10.00800037	1.310874701	0.3614627123	1.513469338	1.0
52	0	100.8349991	-10.00800037	1.292505622	0.3518351614	1.54085505	1.0
53	0	100.8349991	-10.00800037	1.273732066	0.3341161311	1.560214758	1.0
54	0	100.8349991	-10.00800037	1.251028061	0.3283143044	1.565878868	1.0
[Spine2]
51	0	91	-13.73399925	1.286368251	0.37919119	1.522283792	1.0
52	0	91	-13.73399925	1.267803192	0.3689026535	1.549453735	1.0
53	0	91	-13.73399925	1.248832941	0.3506443501	1.56855166	1.0
54	0	91	-13.73399925	1.226063251	0.3448186815	1.574260354	1.0
[Neck]
51	0	166.7169952	-25.16200066	6.788938522	0.2777419686	-0.1373454779	1.0
52	0	166.7169952	-25.16200066	6.726075649	0.1937839836	0.02034951933	1.0
53	0	166.7169952	-25.16200066	6.670024872	0.1196248829	0.1502899826	1.0
54	0	166.7169952	-25.16200066	6.615761757	0.088227503	0.187756598	1.0
[Head]
51	0	96.17900085	16.84999847	-7.98663187	2.999140978	-1.533637762	1.0
52	0	96.17900085	16.84999847	-7.96032095	2.703206778	-1.230493069	1.0
53	0	96.17900085	16.84999847	-7.917361259	2.430313349	-0.9621129036	1.0
54	0	96.17900085	16.84999847	-7.798473358	2.299573898	-0.8581776619	1.0
[LeftEye]
51	30.6760006	64.09500122	92.83599854	0	0	0	1.0
52	30.6760006	64.09500122	92.83599854	0	0	0	1.0
53	30.6760006	64.09500122	92.83599854	0	0	0	1.0
54	30.6760006	64.09500122	92.83599854	0	0	0	1.0
[RightEye]
51	-30.6760006	64.09500122	92.83499908	0	0	0	1.0
52	-30.6760006	64.09500122	92.83499908	0	0	0	1.0
53	-30.6760006	64.09500122	92.83499908	0	0	0	1.0
54	-30.6760006	64.09500122	92.83499908	0	0	0	1.0
[LeftShoulder]
51	45.70400238	109.4599991	-26.28000069	4.902440548	-16.56100464	-13.58304214	1.0
52	45.70400238	109.4599991	-26.28000069	4.929438114	-16.70676804	-13.52857971	1.0
53	45.70400238	109.4599991	-26.28000069	4.950643063	-16.80042839	-13.51650715	1.0
54	45.70400238	109.4599991	-26.28000069	4.945425034	-16.78974533	-13.50123501	1.0
[LeftArm]
51	105.923996	-5.24600029	-22.32099915	21.46926117	-3.719180107	-68.26602173	1.0
52	105.923996	-5.24600029	-22.32099915	22.15334129	-4.070473194	-68.36739349	1.0
53	105.923996	-5.24600029	-22.32099915	22.6355114	-4.374403477	-68.42658234	1.0
54	105.923996	-5.24600029	-22.32099915	22.55100632	-4.346468449	-68.6282959	1.0
[LeftForeArm]
51	278.414978	-0.0009999999311	0	5.050797427e-06	-2.796947002	-0.0001959273068	1.0
52	278.414978	-0.0009999999311	0	1.137350228e-05	-2.861370802	-0.0001991876488	1.0
53	278.414978	-0.0009999999311	0	6.348821898e-06	-2.830165386	-0.0001835113362	1.0
54	278.414978	-0.0009999999311	0	4.404778338e-06	-2.750531673	-0.0001832037378	1.0
[LeftHand]
51	283.2879944	0	0	-32.58519745	-5.232211113	-3.357383728	1.0
52	283.2879944	0	0	-32.51490021	-5.238387108	-3.771649122	1.0
53	283.2879944	0	0	-32.67091751	-5.27381897	-4.190672398	1.0
54	283.2879944	0	0	-32.79505539	-5.292105675	-4.260943413	1.0
[LeftHandThumb1]
51	24.6609993	-15.75	26.8239994	-0.6361405849	1.636207223	3.416960716	1.0
52	24.6609993	-15.75	26.8239994	-1.141608834	1.548931241	3.736004829	1.0
53	24.6609993	-15.75	26.8239994	-1.545859337	1.521644235	4.025546074	1.0
54	24.6609993	-15.75	26.8239994	-1.616801739	1.524125576	4.072428703	1.0
[LeftHandThumb2]
51	32.29800034	-18.64699936	18.64699936	19.50564575	16.03422546	16.94418144	1.0
52	32.29800034	-18.64699936	18.64699936	19.43877411	15.9377594	16.61266136	1.0
53	32.29800034	-18.64699936	18.64699936	19.39499474	15.90508652	16.33573532	1.0
54	32.29800034	-18.64699936	18.64699936	19.37737656	15.87407112	16.25980949	1.0
[LeftHandThumb3]
51	26.52600098	-15.31499958	15.31499958	-12.65545464	4.406516075	11.4400301	1.0
52	26.52600098	-15.31499958	15.31499958	-12.51165104	4.237846851	11.50652695	1.0
53	26.52600098	-15.31499958	15.31499958	-12.41232491	4.109329224	11.5713129	1.0
54	26.52600098	-15.31499958	15.31499958	-12.38804436	4.086288452	11.61530495	1.0
[LeftHandThumb4]
51	19.54599953	-11.28499985	11.28499985	0	0	0	1.0
52	19.54599953	-11.28499985	11.28499985	0	0	0	1.0
53	19.54599953	-11.28499985	11.28499985	0	0	0	1.0
54	19.54599953	-11.28499985	11.28499985	0	0	0	1.0
[LeftHandIndex1]
51	91.09299469	-5.170999527	22.60099792	0.5371441245	-0.8793734312	-7.452928066	1.0
52	91.09299469	-5.170999527	22.60099792	0.4266116023	-0.9081419706	-7.445178509	1.0
53	91.09299469	-5.170999527	22.60099792	0.3518303633	-0.9231966138	-7.479651928	1.0
54	91.09299469	-5.170999527	22.60099792	0.3391129375	-0.9262161255	-7.484418869	1.0
[LeftHandIndex2]
51	36.76399994	0	0	-0.270580858	1.757509351	-17.50336456	1.0
52	36.76399994	0	0	-0.269723475	1.754795074	-17.47542953	1.0
53	36.76399994	0	0	-0.2690555155	1.752672553	-17.45358086	1.0
54	36.76399994	0	0	-0.2688149512	1.751905084	-17.44569016	1.0
[LeftHandIndex3]
51	28.83100128	0	0	-0.05924184248	0.8300807476	-8.164553642	1.0
52	28.83100128	0	0	-0.05884756148	0.8272916079	-8.136998177	1.0
53	28.83100128	0	0	-0.05853364617	0.8251131773	-8.115352631	1.0
54	28.83100128	0	0	-0.0584204644	0.8243207335	-8.107502937	1.0
[LeftHandIndex4]
51	23.92700005	0	0	0	0	0	1.0
52	23.92700005	0	0	0	0	0	1.0
53	23.92700005	0	0	0	0	0	1.0
54	23.92700005	0	0	0	0	0	1.0
[LeftHandMiddle1]
51	95.33399963	0	0	-0.7674186826	2.799078941	-15.30948639	1.0
52	95.33399963	0	0	-0.7850874662	2.722452641	-15.57539368	1.0
53	95.33399963	0	0	-0.800966382	2.668191195	-15.81266975	1.0
54	95.33399963	0	0	-0.8057572842	2.657496452	-15.88374996	1.0
[LeftHandMiddle2]
51	36.98199844	0	0	-0.2613842189	1.728101254	-17.2010746	1.0
52	36.98199844	0	0	-0.2626250386	1.732092857	-17.24205017	1.0
53	36.98199844	0	0	-0.2636577487	1.735418558	-17.27625275	1.0
54	36.98199844	0	0	-0.2641620636	1.737036109	-17.29287148	1.0
[LeftHandMiddle3]
51	29.50900078	0	0	-0.2926329672	1.825933933	-18.20863724	1.0
52	29.50900078	0	0	-0.2939212322	1.829846621	-18.24908638	1.0
53	29.50900078	0	0	-0.2950145304	1.833154559	-18.2832737	1.0
54	29.50900078	0	0	-0.2955488861	1.834766507	-18.29993439	1.0
[LeftHandMiddle4]
51	28.3390007	0	0	0	0	0	1.0
52	28.3390007	0	0	0	0	0	1.0
53	28.3390007	0	0	0	0	0	1.0
54	28.3390007	0	0	0	0	0	1.0
[LeftHandRing1]
51	91.04499817	-0.4390000105	-18.65100098	-1.250207782	3.561832428	-22.02275658	1.0
52	91.04499817	-0.4390000105	-18.65100098	-1.274727583	3.54328537	-22.34213638	1.0
53	91.04499817	-0.4390000105	-18.65100098	-1.306924939	3.542759418	-22.75844383	1.0
54	91.04499817	-0.4390000105	-18.65100098	-1.312478542	3.541821957	-22.83003616	1.0
[LeftHandRing2]
51	31.54000092	0	0	-0.3676606119	2.039811373	-20.43284225	1.0
52	31.54000092	0	0	-0.3772613406	2.065387726	-20.70098495	1.0
53	31.54000092	0	0	-0.3888483942	2.095761538	-21.02003098	1.0
54	31.54000092	0	0	-0.3929971457	2.106416702	-21.13224983	1.0
[LeftHandRing3]
51	29.37700081	0	0	-0.2665005028	1.74453342	-17.36989594	1.0
52	29.37700081	0	0	-0.2750166953	1.771500111	-17.64733505	1.0
53	29.37700081	0	0	-0.2851853967	1.803149939	-17.97345352	1.0
54	29.37700081	0	0	-0.2888117731	1.814165354	-18.0872345	1.0
[LeftHandRing4]
51	26.47500038	0	0	0	0	0	1.0
52	26.47500038	0	0	0	0	0	1.0
53	26.47500038	0	0	0	0	0	1.0
54	26.47500038	0	0	0	0	0	1.0
[LeftHandPinky1]
51	80.77799988	-4.887000084	-38.06099701	-1.749380827	5.491119385	-27.53443909	1.0
52	80.77799988	-4.887000084	-38.06099701	-1.798689246	5.33407259	-27.56212997	1.0
53	80.77799988	-4.887000084	-38.06099701	-1.882910848	5.215569019	-27.63542366	1.0
54	80.77799988	-4.887000084	-38.06099701	-1.90563798	5.189116478	-27.63307381	1.0
[LeftHandPinky2]
51	36	0	0	-0.2880220711	1.811865211	-18.06345177	1.0
52	36	0	0	-0.2873274386	1.809735537	-18.04146576	1.0
53	36	0	0	-0.2870978117	1.809028506	-18.03416252	1.0
54	36	0	0	-0.2868244946	1.808189511	-18.02549934	1.0
[LeftHandPinky3]
51	21.14200211	0	0	-0.2597231865	1.722722173	-17.14580727	1.0
52	21.14200211	0	0	-0.2595106661	1.722037315	-17.13873672	1.0
53	21.14200211	0	0	-0.2594457567	1.721821427	-17.13656044	1.0
54	21.14200211	0	0	-0.2591900826	1.720989943	-17.12803841	1.0
[LeftHandPinky4]
51	19.75699997	0	0	0	0	0	1.0
52	19.75699997	0	0	0	0	0	1.0
53	19.75699997	0	0	0	0	0	1.0
54	19.75699997	0	0	0	0	0	1.0
[RightShoulder]
51	-45.70000076	109.4620056	-26.28000069	5.390982151	15.28761101	15.49556541	1.0
52	-45.70000076	109.4620056	-26.28000069	5.396642685	15.30770016	15.5026722	1.0
53	-45.70000076	109.4620056	-26.28000069	5.395845413	15.2997942	15.51358128	1.0
54	-45.70000076	109.4620056	-26.28000069	5.376354694	15.22594166	15.51789665	1.0
[RightArm]
51	-105.9280014	-5.248000145	-22.32099915	30.67454529	2.978192329	61.34533691	1.0
52	-105.9280014	-5.248000145	-22.32099915	29.90908432	2.971777678	61.09472656	1.0
53	-105.9280014	-5.248000145	-22.32099915	29.29137421	2.944543123	60.94278336	1.0
54	-105.9280014	-5.248000145	-22.32099915	29.25609207	2.842147112	61.0603714	1.0
[RightForeArm]
51	-278.414978	0	0	-7.714455933e-06	7.065986156	-3.865871804e-06	1.0
52	-278.414978	0	0	-6.078861588e-06	6.966051102	-1.20097302e-05	1.0
53	-278.414978	0	0	-4.445590491e-07	6.887906075	-4.565475137e-06	1.0
54	-278.414978	0	0	5.271817258e-07	6.853124142	-5.546444299e-07	1.0
[RightHand]
51	-283.2879944	0	0.0009999999311	-22.05455208	3.652218819	6.983092308	1.0
52	-283.2879944	0	0.0009999999311	-21.60321999	3.111489773	6.65601635	1.0
53	-283.2879944	0	0.0009999999311	-21.12849045	2.709678173	6.157889366	1.0
54	-283.2879944	0	0.0009999999311	-21.02410889	2.608256817	6.191742897	1.0
[RightHandPinky1]
51	-80.76699829	-4.885000229	-38.06000137	-1.664864182	-4.577932835	28.35036087	1.0
52	-80.76699829	-4.885000229	-38.06000137	-1.695767999	-4.606097221	28.7840023	1.0
53	-80.76699829	-4.885000229	-38.06000137	-1.707732081	-4.621729851	28.9559288	1.0
54	-80.76699829	-4.885000229	-38.06000137	-1.693470955	-4.633573055	28.78817558	1.0
[RightHandPinky2]
51	-36	0	0.0009999999311	-0.2133006752	-1.390572071	17.45980263	1.0
52	-36	0	0.0009999999311	-0.2137014568	-1.391871572	17.47665405	1.0
53	-36	0	0.0009999999311	-0.2144211233	-1.394138694	17.50613213	1.0
54	-36	0	0.0009999999311	-0.2143160254	-1.393802404	17.50178337	1.0
[RightHandPinky3]
51	-21.14200211	0	0	-0.1920636594	-1.321105957	16.54298592	1.0
52	-21.14200211	0	0	-0.1924670488	-1.322451353	16.56024742	1.0
53	-21.14200211	0	0	-0.1931561679	-1.324785113	16.59022713	1.0
54	-21.14200211	0	0	-0.1930868477	-1.324551821	16.58722687	1.0
[RightHandPinky4]
51	-19.75699997	0	0	0	0	0	1.0
52	-19.75699997	0	0	0	0	0	1.0
53	-19.75699997	0	0	0	0	0	1.0
54	-19.75699997	0	0	0	0	0	1.0
[RightHandRing1]
51	-91.03599548	-0.4390000105	-18.65100098	-1.112733364	-2.913999081	21.49482918	1.0
52	-91.03599548	-0.4390000105	-18.65100098	-1.132980585	-3.030745029	21.79523087	1.0
53	-91.03599548	-0.4390000105	-18.65100098	-1.14270103	-3.07717824	21.93906021	1.0
54	-91.03599548	-0.4390000105	-18.65100098	-1.136137962	-3.079467058	21.84083939	1.0
[RightHandRing2]
51	-31.54000092	0	0	-0.2976444066	-1.634941936	20.63450623	1.0
52	-31.54000092	0	0	-0.2988994122	-1.638257265	20.67842102	1.0
53	-31.54000092	0	0	-0.3000694215	-1.641351342	20.71930695	1.0
54	-31.54000092	0	0	-0.3010070026	-1.643813848	20.75185966	1.0
[RightHandRing3]
51	-29.37700081	0	0	-0.2167650908	-1.401563883	17.58260727	1.0
52	-29.37700081	0	0	-0.2178595066	-1.405002236	17.62721825	1.0
53	-29.37700081	0	0	-0.2188790292	-1.408201456	17.66864204	1.0
54	-29.37700081	0	0	-0.2196862549	-1.410719514	17.70129776	1.0
[RightHandRing4]
51	-26.47500038	0	0	0	0	0	1.0
52	-26.47500038	0	0	0	0	0	1.0
53	-26.47500038	0	0	0	0	0	1.0
54	-26.47500038	0	0	0	0	0	1.0
[RightHandMiddle1]
51	-95.32500458	0	0	-0.7887292504	-2.204063177	16.453619	1.0
52	-95.32500458	0	0	-0.8049118519	-2.289769888	16.71529388	1.0
53	-95.32500458	0	0	-0.8130379319	-2.334635735	16.8461895	1.0
54	-95.32500458	0	0	-0.8043859005	-2.326923609	16.70423889	1.0
[RightHandMiddle2]
51	-36.98199844	0	0	-0.2118267417	-1.385877728	17.37942314	1.0
52	-36.98199844	0	0	-0.2119894773	-1.386389017	17.38612747	1.0
53	-36.98199844	0	0	-0.2123197615	-1.387460232	17.39987564	1.0
54	-36.98199844	0	0	-0.2124857754	-1.387991667	17.4067421	1.0
[RightHandMiddle3]
51	-29.50900078	0	0	-0.2369194031	-1.46565485	18.38882446	1.0
52	-29.50900078	0	0	-0.2370882481	-1.46616292	18.3953495	1.0
53	-29.50900078	0	0	-0.2374389619	-1.467198491	18.40902328	1.0
54	-29.50900078	0	0	-0.2376148999	-1.467724919	18.41589165	1.0
[RightHandMiddle4]
51	-28.3390007	0	0.0009999999311	0	0	0	1.0
52	-28.3390007	0	0.0009999999311	0	0	0	1.0
53	-28.3390007	0	0.0009999999311	0	0	0	1.0
54	-28.3390007	0	0.0009999999311	0	0	0	1.0
[RightHandIndex1]
51	-91.08300018	-5.167999744	22.60099792	0.1735597402	0.9873725176	7.333611488	1.0
52	-91.08300018	-5.167999744	22.60099792	0.167027384	0.8598101735	7.745979309	1.0
53	-91.08300018	-5.167999744	22.60099792	0.1676492393	0.7925708294	7.904576778	1.0
54	-91.08300018	-5.167999744	22.60099792	0.1667943299	0.8209651709	7.877151966	1.0
[RightHandIndex2]
51	-36.76399994	0	0	-0.2082733959	-1.374481916	17.2319355	1.0
52	-36.76399994	0	0	-0.2099502236	-1.379881382	17.3018837	1.0
53	-36.76399994	0	0	-0.2108334452	-1.3827281	17.33866692	1.0
54	-36.76399994	0	0	-0.2105957419	-1.381961465	17.32874298	1.0
[RightHandIndex3]
51	-28.83100128	0	0	-0.04379703477	-0.6360308528	7.877937317	1.0
52	-28.83100128	0	0	-0.04457686841	-0.6416357756	7.947809219	1.0
53	-28.83100128	0	0	-0.04499005526	-0.6445862055	7.984558582	1.0
54	-28.83100128	0	0	-0.04487900436	-0.6437913775	7.974637032	1.0
[RightHandIndex4]
51	-23.92700005	0	0	0	0	0	1.0
52	-23.92700005	0	0	0	0	0	1.0
53	-23.92700005	0	0	0	0	0	1.0
54	-23.92700005	0	0	0	0	0	1.0
[RightHandThumb1]
51	-24.64799881	-15.72700024	26.82600021	-1.80209744	0.1353670061	-3.772177935	1.0
52	-24.64799881	-15.72700024	26.82600021	-1.786568642	-0.05272773281	-3.107757568	1.0
53	-24.64799881	-15.72700024	26.82600021	-1.763762116	-0.2067728788	-2.737494946	1.0
54	-24.64799881	-15.72700024	26.82600021	-1.748510838	-0.2635362446	-2.71255517	1.0
[RightHandThumb2]
51	-32.29800034	-18.64699936	18.64699936	21.66874504	-23.40966034	-23.99520874	1.0
52	-32.29800034	-18.64699936	18.64699936	22.04776955	-23.72615623	-24.18043137	1.0
53	-32.29800034	-18.64699936	18.64699936	22.29828644	-23.93333626	-24.30397606	1.0
54	-32.29800034	-18.64699936	18.64699936	22.34690857	-23.97333908	-24.32810211	1.0
[RightHandThumb3]
51	-26.52600098	-15.31399918	15.31399918	-14.58165455	-6.610033989	-11.33742332	1.0
52	-26.52600098	-15.31399918	15.31399918	-14.66096783	-6.510719776	-11.31343746	1.0
53	-26.52600098	-15.31399918	15.31399918	-14.69550705	-6.467153072	-11.3021574	1.0
54	-26.52600098	-15.31399918	15.31399918	-14.68553448	-6.479633808	-11.30519104	1.0
[RightHandThumb4]
51	-19.54599953	-11.28499985	11.28499985	0	0	0	1.0
52	-19.54599953	-11.28499985	11.28499985	0	0	0	1.0
53	-19.54599953	-11.28499985	11.28499985	0	0	0	1.0
54	-19.54599953	-11.28499985	11.28499985	0	0	0	1.0
[LeftUpLeg]
51	82.07800293	-67.51699829	-15.99599934	-10.76502705	16.46945953	8.315901756	1.0
52	82.07800293	-67.51699829	-15.99599934	-10.39111614	16.45111847	8.203226089	1.0
53	82.07800293	-67.51699829	-15.99599934	-10.01606083	16.43521881	8.111854553	1.0
54	82.07800293	-67.51699829	-15.99599934	-9.773600578	16.41861725	8.07468605	1.0
[LeftLeg]
51	0	-443.7049866	2.845999956	15.40043736	1.693221331	4.714190006	1.0
52	0	-443.7049866	2.845999956	14.82500267	1.678331971	4.687853813	1.0
53	0	-443.7049866	2.845999956	14.26546288	1.633793116	4.65844965	1.0
54	0	-443.7049866	2.845999956	13.98837471	1.58405757	4.645689964	1.0
[LeftFoot]
51	0	-444.2789917	-29.8219986	0.1559585184	0.5495712757	-7.735964298	1.0
52	0	-444.2789917	-29.8219986	0.3501157463	0.5685842633	-7.634832382	1.0
53	0	-444.2789917	-29.8219986	0.5513628125	0.5881021023	-7.550225258	1.0
54	0	-444.2789917	-29.8219986	0.6412200928	0.5970564485	-7.511782646	1.0
[LeftToeBase]
51	0	-87.28699493	107.1060028	-4.744955063	-2.458921244e-06	1.631033001e-06	1.0
52	0	-87.28699493	107.1060028	-4.765158653	-4.128483397e-06	1.017061663e-06	1.0
53	0	-87.28699493	107.1060028	-4.786894321	-2.464507133e-06	-1.290738737e-06	1.0
54	0	-87.28699493	107.1060028	-4.797630787	-1.351505034e-06	-1.610913273e-06	1.0
[RightUpLeg]
51	-82.07800293	-67.51699829	-15.99599934	-2.735201597	-10.21342278	4.120418072	1.0
52	-82.07800293	-67.51699829	-15.99599934	-2.368206501	-10.22441673	4.001833439	1.0
53	-82.07800293	-67.51699829	-15.99599934	-1.972891331	-10.24310398	3.898560286	1.0
54	-82.07800293	-67.51699829	-15.99599934	-1.687923074	-10.26232338	3.840287924	1.0
[RightLeg]
51	0	-443.7049866	2.861999989	11.41079617	-8.41967392	-4.609517097	1.0
52	0	-443.7049866	2.861999989	10.85779476	-8.495333672	-4.565301895	1.0
53	0	-443.7049866	2.861999989	10.28055859	-8.580851555	-4.515343189	1.0
54	0	-443.7049866	2.861999989	9.944750786	-8.646052361	-4.500356197	1.0
[RightFoot]
51	0	-444.2770081	-29.83799934	-5.783104897	-1.389244318	2.972383976	1.0
52	0	-444.2770081	-29.83799934	-5.477554321	-1.40013063	2.985794067	1.0
53	0	-444.2770081	-29.83799934	-5.168958187	-1.412466884	2.992178917	1.0
54	0	-444.2770081	-29.83799934	-4.992316246	-1.418240786	3.009824991	1.0
[RightToeBase]
51	0	-87.28699493	107.1060028	-7.194320202	1.584610118e-06	2.247571587e-07	1.0
52	0	-87.28699493	107.1060028	-7.209578991	1.583204039e-06	-3.068646492e-07	1.0
53	0	-87.28699493	107.1060028	-7.224270344	6.190646218e-06	1.666181447e-06	1.0
54	0	-87.28699493	107.1060028	-7.229370594	7.129249752e-06	1.534770036e-06	1.0
[EndOfFile]
